<svg width="18" height="19" viewBox="0 0 18 19" fill="none" xmlns="http://www.w3.org/2000/svg">
<path d="M13.75 8.875C13.75 8.64062 13.5156 8.40625 13.2812 8.40625H9.84375V4.96875C9.84375 4.73438 9.60938 4.5 9.375 4.5H8.125C7.85156 4.5 7.65625 4.73438 7.65625 4.96875V8.40625H4.21875C3.94531 8.40625 3.75 8.64062 3.75 8.875V10.125C3.75 10.3984 3.94531 10.5938 4.21875 10.5938H7.65625V14.0312C7.65625 14.3047 7.85156 14.5 8.125 14.5H9.375C9.60938 14.5 9.84375 14.3047 9.84375 14.0312V10.5938H13.2812C13.5156 10.5938 13.75 10.3984 13.75 10.125V8.875ZM17.5 2.625C17.5 1.60938 16.6406 0.75 15.625 0.75H1.875C0.820312 0.75 0 1.60938 0 2.625V16.375C0 17.4297 0.820312 18.25 1.875 18.25H15.625C16.6406 18.25 17.5 17.4297 17.5 16.375V2.625ZM15.625 16.1406C15.625 16.2969 15.5078 16.375 15.3906 16.375H2.10938C1.95312 16.375 1.875 16.2969 1.875 16.1406V2.85938C1.875 2.74219 1.95312 2.625 2.10938 2.625H15.3906C15.5078 2.625 15.625 2.74219 15.625 2.85938V16.1406Z" fill="#4CAF50"/>
</svg>
