<svg width="18" height="21" viewBox="0 0 18 21" fill="none" xmlns="http://www.w3.org/2000/svg">
<path d="M10.4688 16.75H11.4062C11.6406 16.75 11.875 16.5547 11.875 16.2812V7.84375C11.875 7.60938 11.6406 7.375 11.4062 7.375H10.4688C10.1953 7.375 10 7.60938 10 7.84375V16.2812C10 16.5547 10.1953 16.75 10.4688 16.75ZM16.875 3.625H13.6328L12.3047 1.4375C11.9922 0.929688 11.2891 0.5 10.7031 0.5H6.75781C6.17188 0.5 5.46875 0.929688 5.15625 1.4375L3.82812 3.625H0.625C0.273438 3.625 0 3.9375 0 4.25V4.875C0 5.22656 0.273438 5.5 0.625 5.5H1.25V18.625C1.25 19.6797 2.07031 20.5 3.125 20.5H14.375C15.3906 20.5 16.25 19.6797 16.25 18.625V5.5H16.875C17.1875 5.5 17.5 5.22656 17.5 4.875V4.25C17.5 3.9375 17.1875 3.625 16.875 3.625ZM6.67969 2.49219C6.71875 2.45312 6.83594 2.375 6.875 2.375H6.91406H10.5859C10.625 2.375 10.7422 2.45312 10.7812 2.49219L11.4453 3.625H6.01562L6.67969 2.49219ZM14.375 18.625H3.125V5.5H14.375V18.625ZM6.09375 16.75H7.03125C7.26562 16.75 7.5 16.5547 7.5 16.2812V7.84375C7.5 7.60938 7.26562 7.375 7.03125 7.375H6.09375C5.82031 7.375 5.625 7.60938 5.625 7.84375V16.2812C5.625 16.5547 5.82031 16.75 6.09375 16.75Z" fill="#F44336"/>
</svg>
