<svg width="23" height="21" viewBox="0 0 23 21" fill="none" xmlns="http://www.w3.org/2000/svg">
<path d="M15.7031 13.9766C15.625 14.0547 15.625 14.1328 15.625 14.2109V18.625H1.875V4.875H11.2891C11.3672 4.875 11.4453 4.875 11.5234 4.79688L12.7734 3.54688C12.9688 3.35156 12.8125 3 12.5391 3H1.875C0.820312 3 0 3.85938 0 4.875V18.625C0 19.6797 0.820312 20.5 1.875 20.5H15.625C16.6406 20.5 17.5 19.6797 17.5 18.625V12.9609C17.5 12.6875 17.1484 12.5312 16.9531 12.7266L15.7031 13.9766ZM21.7969 6.125C22.6953 5.22656 22.6953 3.78125 21.7969 2.88281L20.1172 1.20312C19.2188 0.304688 17.7734 0.304688 16.875 1.20312L6.64062 11.4375L6.25 14.9922C6.13281 16.0078 6.99219 16.8672 8.00781 16.75L11.5625 16.3594L21.7969 6.125ZM17.9688 7.29688L10.7031 14.5625L8.125 14.875L8.4375 12.2969L15.7031 5.03125L17.9688 7.29688ZM20.4688 4.21094C20.6641 4.36719 20.6641 4.60156 20.5078 4.79688L19.2969 6.00781L17.0312 3.70312L18.2031 2.53125C18.3594 2.33594 18.6328 2.33594 18.7891 2.53125L20.4688 4.21094Z" fill="#478EE4"/>
</svg>
