<svg width="18" height="19" viewBox="0 0 18 19" fill="none" xmlns="http://www.w3.org/2000/svg">
<path d="M16.9531 4.57812C17.3177 4.94271 17.5 5.38542 17.5 5.90625V16.375C17.5 16.8958 17.3177 17.3385 16.9531 17.7031C16.5885 18.0677 16.1458 18.25 15.625 18.25H1.875C1.35417 18.25 0.911458 18.0677 0.546875 17.7031C0.182292 17.3385 0 16.8958 0 16.375V2.625C0 2.10417 0.182292 1.66146 0.546875 1.29688C0.911458 0.932292 1.35417 0.75 1.875 0.75H12.3438C12.8646 0.75 13.3073 0.932292 13.6719 1.29688L16.9531 4.57812ZM10.625 2.625H5.625V5.75H10.625V2.625ZM15.3906 16.375C15.5469 16.375 15.625 16.2969 15.625 16.1406V5.98438C15.625 5.93229 15.599 5.88021 15.5469 5.82812L12.5 2.78125V6.6875C12.5 6.94792 12.4089 7.16927 12.2266 7.35156C12.0443 7.53385 11.8229 7.625 11.5625 7.625H4.6875C4.42708 7.625 4.20573 7.53385 4.02344 7.35156C3.84115 7.16927 3.75 6.94792 3.75 6.6875V2.625H2.10938C1.95312 2.625 1.875 2.70312 1.875 2.85938V16.1406C1.875 16.2969 1.95312 16.375 2.10938 16.375H15.3906ZM6.32812 9.57812C7.00521 8.90104 7.8125 8.5625 8.75 8.5625C9.6875 8.5625 10.4948 8.90104 11.1719 9.57812C11.849 10.2552 12.1875 11.0625 12.1875 12C12.1875 12.9375 11.849 13.7448 11.1719 14.4219C10.4948 15.099 9.6875 15.4375 8.75 15.4375C7.8125 15.4375 7.00521 15.099 6.32812 14.4219C5.65104 13.7448 5.3125 12.9375 5.3125 12C5.3125 11.0625 5.65104 10.2552 6.32812 9.57812ZM7.61719 13.1328C7.92969 13.4193 8.30729 13.5625 8.75 13.5625C9.19271 13.5625 9.55729 13.4193 9.84375 13.1328C10.1562 12.8203 10.3125 12.4427 10.3125 12C10.3125 11.5573 10.1562 11.1927 9.84375 10.9062C9.55729 10.5938 9.19271 10.4375 8.75 10.4375C8.30729 10.4375 7.92969 10.5938 7.61719 10.9062C7.33073 11.1927 7.1875 11.5573 7.1875 12C7.1875 12.4427 7.33073 12.8203 7.61719 13.1328Z" fill="#478EE4"/>
</svg>
